<svg width="48" height="48" viewBox="0 0 48 48" fill="none" xmlns="http://www.w3.org/2000/svg">
<g clip-path="url(#clip0_1294_2139)">
<mask id="mask0_1294_2139" style="mask-type:alpha" maskUnits="userSpaceOnUse" x="24" y="0" width="24" height="48">
<rect x="24" width="24" height="48" fill="#312E2B"/>
</mask>
<g mask="url(#mask0_1294_2139)">
<rect x="4.57764e-05" width="48" height="48" rx="4.8" fill="#312E2B"/>
<rect x="1.00005" y="1" width="46" height="46" rx="3.8" stroke="white" stroke-opacity="0.1" stroke-width="2"/>
</g>
<mask id="mask1_1294_2139" style="mask-type:alpha" maskUnits="userSpaceOnUse" x="0" y="0" width="24" height="48">
<rect width="24" height="48" fill="#312E2B"/>
</mask>
<g mask="url(#mask1_1294_2139)">
<rect width="48" height="48" rx="4.8" fill="#E7E6E5"/>
<rect x="1" y="1" width="46" height="46" rx="3.8" stroke="black" stroke-opacity="0.1" stroke-width="2"/>
</g>
<rect x="6.00002" y="12" width="24" height="7.8" fill="#E7E6E5"/>
<path d="M12.7407 11.0967L12.1476 11.7887L12.7818 12.4433L17.5109 17.3248L18.1113 17.9445L18.8123 17.4413C20.2298 16.4239 21.2386 15.8789 22.0284 15.5839C22.7961 15.2972 23.3905 15.2339 24.0125 15.2339C25.2458 15.2339 26.2121 16.0598 26.2121 17.281C26.2121 17.5181 26.0876 17.8602 25.6811 18.3436C25.2823 18.818 24.7114 19.3123 24.0351 19.8475C23.7922 20.0397 23.5271 20.2435 23.256 20.452C22.8168 20.7897 22.362 21.1394 21.9609 21.4709C21.306 22.0123 20.6496 22.6178 20.2083 23.278C19.7322 23.95 19.3897 24.574 19.1768 25.2846C18.9644 25.9932 18.899 26.7282 18.899 27.5925V30.0302V31.0302H19.899H27.2121H28.2121V30.0302V28.659C28.2121 28.0122 28.3452 27.6249 28.6373 27.3125L28.6373 27.3125L28.6415 27.3079C29.2008 26.702 29.8033 26.1285 30.4346 25.5277C30.5569 25.4113 30.6802 25.2939 30.8045 25.1751C31.5578 24.4548 32.3364 23.6902 33.0315 22.8428C34.444 21.1204 35.5252 19.0374 35.5252 16.1536C35.5252 10.2742 30.3587 6 23.8236 6C18.6188 6 14.7048 8.80522 12.7407 11.0967Z" fill="#312E2B" stroke="#E7E6E5" stroke-width="2"/>
<path d="M29 36.5C29 33.4624 26.5376 31 23.5 31C20.4624 31 18 33.4624 18 36.5C18 39.5376 20.4624 42 23.5 42C26.5376 42 29 39.5376 29 36.5Z" fill="#312E2B" stroke="#E7E6E5" stroke-width="2"/>
</g>
<defs>
<clipPath id="clip0_1294_2139">
<rect width="48" height="48" fill="white"/>
</clipPath>
</defs>
</svg>
