<svg width="24" height="24" viewBox="0 0 24 24" fill="none" xmlns="http://www.w3.org/2000/svg">
<g id="colorpicker-white-sm">
<g id="Rectangle 19">
<rect width="24" height="24" rx="3" fill="#E7E6E5"/>
<rect x="0.5" y="0.5" width="23" height="23" rx="2.5" stroke="black" stroke-opacity="0.1"/>
</g>
<path id="Vector" d="M16.7783 18.5141C17.1739 17.3873 17.7109 16.9929 18.4174 16.2887C19.4347 15.2746 20.4239 14.1197 20.4239 12.4014C20.4239 10.4577 19.1239 8.59859 16.6652 8.59859C15.45 8.59859 14.4892 9.04929 13.7544 9.47182L13.5001 6.5H14.5001C15.0524 6.5 15.5001 6.05228 15.5001 5.5V4.5C15.5001 3.94772 15.0524 3.5 14.5001 3.5H13.5415V2.5C13.5415 1.94772 13.0938 1.5 12.5415 1.5H11.5001C10.9478 1.5 10.5001 1.94772 10.5001 2.5V3.5H9.5001C8.94781 3.5 8.5001 3.94772 8.5001 4.5V5.5C8.5001 6.05228 8.94781 6.5 9.5001 6.5H10.5001L10.161 9.47182C9.39794 9.04929 8.55013 8.59859 7.30667 8.59859C4.87628 8.59859 3.51978 10.3451 3.51978 12.3732C3.51978 14.1197 4.50889 15.331 5.498 16.2887C6.09147 16.8803 6.7132 17.3591 7.13711 18.5141M5.5 21.5H18.5V20.6549C18.5 18.993 17.3523 18.5 12.5198 18.5C7.68724 18.5 5.5 18.993 5.5 20.6549V21.5Z" stroke="#4B4847"/>
<path id="Vector_2" d="M13.5 15.5V12.3406C13.5 12.3406 14.8374 11.5 15.8333 11.5C16.5732 11.5 17 12.0797 17 12.6304C17 13.7029 15.4065 15.1812 15.1504 15.5H13.5Z" stroke="#4B4847"/>
<path id="Vector_3" d="M10.5 15.5V12.3406C10.5 12.3406 9.16263 11.5 8.16668 11.5C7.42684 11.5 7 12.0797 7 12.6304C7 13.7029 8.59352 15.1812 8.84962 15.5H10.5Z" stroke="#4B4847"/>
</g>
</svg>
