<?xml version="1.0" encoding="utf-8" ?>
<svg xmlns="http://www.w3.org/2000/svg" xmlns:xlink="http://www.w3.org/1999/xlink" width="200" height="200">
	<path fill="#4B4848" d="M0 0L200 0L200 200L0 200L0 0Z"/>
	<path fill="#262524" d="M96.9148 25.857C97.5678 25.7754 98.2128 25.756 98.8702 25.7482C108.22 25.6375 117.815 28.3496 124.605 35.0316C137.581 47.8023 139.275 74.4319 132.986 90.6931C129.272 100.297 121.092 107.453 121.2 118.414C121.221 120.518 121.719 122.284 123.204 123.845C125.791 126.564 129.946 128.18 133.352 129.643Q140.431 132.637 147.597 135.414C155.485 138.465 164.668 141.264 170.824 147.345C180.293 156.697 178.594 171.68 178.675 183.888C170.416 183.629 162.064 183.875 153.796 183.876L104.375 183.882C76.6997 183.88 48.9892 183.588 21.3184 183.941C21.6903 175.283 20.5336 166.034 23.0618 157.632C26.8528 145.034 38.3037 140.895 49.3507 136.551Q58.0334 133.228 66.5828 129.576C69.8538 128.141 74.0273 126.46 76.3035 123.612C77.7407 121.814 78.0472 119.652 77.9865 117.419C77.7205 107.628 71.0183 100.626 67.3892 92.0286C65.4618 87.4625 64.4989 82.6483 63.9989 77.7354C62.6398 64.3816 64.2953 48.1911 73.085 37.4543C79.39 29.7527 87.3221 26.8195 96.9148 25.857Z"/>
</svg>
